<svg width="16" height="18" viewBox="0 0 16 18" fill="none" xmlns="http://www.w3.org/2000/svg">
<path d="M4.66667 1.29102C4.66667 0.945841 4.94649 0.666016 5.29167 0.666016H6.54167C6.88683 0.666016 7.16667 0.945841 7.16667 1.29102V1.49935H8.20833C8.5535 1.49935 8.83333 1.77917 8.83333 2.12435V3.61152C8.84042 3.61195 8.84742 3.61249 8.8545 3.61316C10.6141 3.77927 12.2421 4.61663 13.4005 5.95139C14.5589 7.28615 15.1588 9.01577 15.0757 10.7812C14.9926 12.5466 14.2327 14.2122 12.9539 15.4321C12.7048 15.6698 12.4397 15.887 12.1612 16.0827H14.875C15.2202 16.0827 15.5 16.3625 15.5 16.7077C15.5 17.0528 15.2202 17.3327 14.875 17.3327H8.23267C8.2245 17.3327 8.21642 17.3328 8.20833 17.3328C8.20583 17.3328 8.20342 17.3327 8.20092 17.3327H1.125C0.779825 17.3327 0.5 17.0528 0.5 16.7077C0.5 16.3625 0.779825 16.0827 1.125 16.0827H8.23075C9.66867 16.0769 11.0503 15.5207 12.0911 14.5277C13.1374 13.5295 13.7591 12.1668 13.8271 10.7224C13.8952 9.27793 13.4042 7.86277 12.4565 6.77072C11.5298 5.70304 10.236 5.02435 8.83333 4.86756V9.20768C8.83333 9.55285 8.5535 9.83268 8.20833 9.83268H7.58333V10.666C7.58333 11.5865 6.83717 12.3327 5.91667 12.3327C4.99619 12.3327 4.25 11.5865 4.25 10.666V9.83268H3.625C3.27982 9.83268 3 9.55285 3 9.20768V2.12435C3 1.77917 3.27982 1.49935 3.625 1.49935H4.66667V1.29102ZM5.5 9.83268V10.666C5.5 10.8961 5.68655 11.0827 5.91667 11.0827C6.14678 11.0827 6.33333 10.8961 6.33333 10.666V9.83268H5.5ZM2.79167 13.5827C2.44649 13.5827 2.16667 13.8625 2.16667 14.2077C2.16667 14.5528 2.44649 14.8327 2.79167 14.8327H9.04167C9.38683 14.8327 9.66667 14.5528 9.66667 14.2077C9.66667 13.8625 9.38683 13.5827 9.04167 13.5827H2.79167Z" fill="#EB5757"/>
</svg>
