<svg width="20" height="20" viewBox="0 0 20 20" fill="none" xmlns="http://www.w3.org/2000/svg">
<path fill-rule="evenodd" clip-rule="evenodd" d="M9.81976 0.919321C9.93988 0.914914 10.0601 0.914914 10.1803 0.919321C10.9807 0.948686 11.6968 1.22134 12.4696 1.66439C13.219 2.09407 14.0796 2.71937 15.1612 3.50519L15.231 3.55591C16.3126 4.34171 17.1733 4.967 17.8135 5.547C18.4737 6.14503 18.9543 6.74179 19.2295 7.49402C19.2709 7.6069 19.308 7.72126 19.3409 7.83687C19.5604 8.60724 19.5223 9.37251 19.3398 10.2444C19.1627 11.0899 18.834 12.1017 18.4208 13.3731L16.9733 17.8281C16.645 18.8385 15.7035 19.5226 14.6411 19.5226C13.2868 19.5226 12.1889 18.4247 12.1889 17.0704V14.7796C12.1889 14.3117 11.8096 13.9324 11.3417 13.9324H8.65827C8.19038 13.9324 7.81108 14.3117 7.81108 14.7796V17.0704C7.81108 18.4247 6.71319 19.5226 5.35888 19.5226C4.29652 19.5226 3.35498 18.8385 3.02669 17.8281L1.57918 13.3731C1.16604 12.1017 0.837291 11.0899 0.660234 10.2444C0.477669 9.37251 0.439635 8.60724 0.659068 7.83687C0.691997 7.72126 0.729154 7.6069 0.770466 7.49402C1.04575 6.74179 1.52634 6.14503 2.1865 5.547C2.82674 4.967 3.6874 4.34171 4.76898 3.55591L4.83879 3.50519C5.92036 2.71937 6.781 2.09407 7.53046 1.66439C8.30322 1.22134 9.01928 0.948686 9.81976 0.919321ZM10.1253 2.41831C10.0418 2.41525 9.95823 2.41525 9.87475 2.41831C9.40621 2.4355 8.93218 2.58978 8.27652 2.96569C7.6056 3.35035 6.80992 3.92718 5.68556 4.74408C4.5612 5.56097 3.76672 6.13945 3.19356 6.65868C2.63344 7.16608 2.34023 7.56924 2.1791 8.00953C2.15039 8.08797 2.12457 8.16744 2.10169 8.24778C1.97325 8.6987 1.97349 9.1972 2.12839 9.93693C2.2869 10.6939 2.58962 11.6289 3.01909 12.9506L4.45328 17.3646C4.58075 17.7569 4.94636 18.0226 5.35888 18.0226C5.88476 18.0226 6.31108 17.5963 6.31108 17.0704V14.7796C6.31108 13.4833 7.36195 12.4324 8.65827 12.4324H11.3417C12.6381 12.4324 13.6889 13.4833 13.6889 14.7796V17.0704C13.6889 17.5963 14.1152 18.0226 14.6411 18.0226C15.0537 18.0226 15.4193 17.7569 15.5467 17.3646L16.9809 12.9506C17.4104 11.6289 17.7131 10.6939 17.8716 9.93693C18.0265 9.1972 18.0268 8.6987 17.8983 8.24778C17.8754 8.16744 17.8496 8.08797 17.8209 8.00953C17.6598 7.56924 17.3666 7.16608 16.8064 6.65868C16.2333 6.13945 15.4388 5.56097 14.3144 4.74408C13.1901 3.92718 12.3944 3.35035 11.7235 2.96569C11.0678 2.58978 10.5938 2.4355 10.1253 2.41831Z" fill="#8E94AB"/>
</svg>
