<svg width="26" height="26" viewBox="0 0 26 26" fill="none" xmlns="http://www.w3.org/2000/svg">
<path d="M9.64208 15.2981C9.34919 15.591 9.34919 16.0659 9.64208 16.3588C9.93497 16.6517 10.4098 16.6517 10.7027 16.3588L9.64208 15.2981ZM16.3596 10.7019C16.6525 10.409 16.6525 9.93414 16.3596 9.64124C16.0667 9.34835 15.5918 9.34835 15.2989 9.64124L16.3596 10.7019ZM15.2989 16.3588C15.5918 16.6517 16.0667 16.6517 16.3596 16.3588C16.6525 16.0659 16.6525 15.591 16.3596 15.2981L15.2989 16.3588ZM10.7027 9.64124C10.4098 9.34835 9.93497 9.34835 9.64208 9.64124C9.34919 9.93414 9.34919 10.409 9.64208 10.7019L10.7027 9.64124ZM10.7027 16.3588L16.3596 10.7019L15.2989 9.64124L9.64208 15.2981L10.7027 16.3588ZM16.3596 15.2981L10.7027 9.64124L9.64208 10.7019L15.2989 16.3588L16.3596 15.2981ZM20.9558 20.955C16.5624 25.3483 9.43928 25.3483 5.04588 20.955L3.98522 22.0156C8.96441 26.9948 17.0373 26.9948 22.0164 22.0156L20.9558 20.955ZM20.9558 5.04505C25.3492 9.43845 25.3492 16.5616 20.9558 20.955L22.0164 22.0156C26.9956 17.0364 26.9956 8.96357 22.0164 3.98439L20.9558 5.04505ZM5.04588 5.04505C9.43928 0.651651 16.5624 0.651651 20.9558 5.04505L22.0164 3.98439C17.0373 -0.994795 8.96441 -0.994795 3.98522 3.98439L5.04588 5.04505ZM3.98522 3.98439C-0.99396 8.96357 -0.99396 17.0364 3.98522 22.0156L5.04588 20.955C0.652487 16.5616 0.652487 9.43845 5.04588 5.04505L3.98522 3.98439Z" fill="#8E94AB"/>
</svg>
