<svg width="26" height="26" viewBox="0 0 26 26" fill="none" xmlns="http://www.w3.org/2000/svg">
<path d="M9.64124 15.2981C9.34835 15.591 9.34835 16.0659 9.64124 16.3588C9.93414 16.6517 10.409 16.6517 10.7019 16.3588L9.64124 15.2981ZM16.3588 10.7019C16.6516 10.409 16.6517 9.93414 16.3588 9.64124C16.0659 9.34835 15.591 9.34835 15.2981 9.64124L16.3588 10.7019ZM15.2981 16.3588C15.591 16.6517 16.0659 16.6517 16.3588 16.3588C16.6517 16.0659 16.6516 15.591 16.3588 15.2981L15.2981 16.3588ZM10.7019 9.64124C10.409 9.34835 9.93414 9.34835 9.64124 9.64124C9.34835 9.93414 9.34835 10.409 9.64124 10.7019L10.7019 9.64124ZM10.7019 16.3588L16.3588 10.7019L15.2981 9.64124L9.64124 15.2981L10.7019 16.3588ZM16.3588 15.2981L10.7019 9.64124L9.64124 10.7019L15.2981 16.3588L16.3588 15.2981ZM20.955 20.955C16.5616 25.3483 9.43845 25.3483 5.04505 20.955L3.98439 22.0156C8.96357 26.9948 17.0364 26.9948 22.0156 22.0156L20.955 20.955ZM20.955 5.04505C25.3483 9.43845 25.3483 16.5616 20.955 20.955L22.0156 22.0156C26.9948 17.0364 26.9948 8.96357 22.0156 3.98439L20.955 5.04505ZM5.04505 5.04505C9.43845 0.651651 16.5616 0.651651 20.955 5.04505L22.0156 3.98439C17.0364 -0.994795 8.96357 -0.994795 3.98439 3.98439L5.04505 5.04505ZM3.98439 3.98439C-0.994796 8.96357 -0.994796 17.0364 3.98439 22.0156L5.04505 20.955C0.651651 16.5616 0.651651 9.43845 5.04505 5.04505L3.98439 3.98439Z" fill="#EB5757"/>
</svg>
