<svg width="20" height="20" viewBox="0 0 20 20" fill="none" xmlns="http://www.w3.org/2000/svg">
<path d="M7.94233 15.8486L7.6694 15.15L7.94233 15.8486ZM4.56199 16.4977L4.18699 17.1472H4.18699L4.56199 16.4977ZM3.43398 13.2457L2.69253 13.3586L3.43398 13.2457ZM3.84256 11.0771L4.49208 11.4521L3.84256 11.0771ZM3.35577 12.1082L2.61874 11.9693H2.61874L3.35577 12.1082ZM9.61606 14.4105L10.2656 14.7855L9.61606 14.4105ZM8.96654 15.3476L9.45532 15.9164H9.45532L8.96654 15.3476ZM7.00792 5.59455L6.35841 5.21955L7.00792 5.59455ZM16.1746 17.6245C16.5888 17.6245 16.9246 17.2887 16.9246 16.8745C16.9246 16.4603 16.5888 16.1245 16.1746 16.1245V17.6245ZM11.1746 16.1245C10.7604 16.1245 10.4246 16.4603 10.4246 16.8745C10.4246 17.2887 10.7604 17.6245 11.1746 17.6245V16.1245ZM12.1319 8.55289L8.96654 14.0355L10.2656 14.7855L13.4309 9.30289L12.1319 8.55289ZM4.49208 11.4521L7.65744 5.96955L6.35841 5.21955L3.19304 10.7021L4.49208 11.4521ZM7.6694 15.15C6.75203 15.5084 6.1396 15.7457 5.67002 15.8554C5.22005 15.9605 5.04682 15.9116 4.93699 15.8482L4.18699 17.1472C4.77089 17.4843 5.39229 17.4607 6.01129 17.3161C6.61067 17.176 7.34155 16.8885 8.21526 16.5472L7.6694 15.15ZM2.69253 13.3586C2.83376 14.2859 2.95019 15.0627 3.12861 15.6518C3.31286 16.2601 3.6031 16.8101 4.18699 17.1472L4.93699 15.8482C4.82717 15.7848 4.69816 15.6592 4.56422 15.217C4.42444 14.7555 4.32372 14.1064 4.17543 13.1328L2.69253 13.3586ZM3.19304 10.7021C2.92912 11.1593 2.7004 11.5359 2.61874 11.9693L4.0928 12.247C4.11624 12.1226 4.17702 11.9978 4.49208 11.4521L3.19304 10.7021ZM4.17543 13.1328C4.08055 12.5098 4.06936 12.3715 4.0928 12.247L2.61874 11.9693C2.53707 12.4028 2.61305 12.8368 2.69253 13.3586L4.17543 13.1328ZM8.96654 14.0355C8.65148 14.5812 8.57379 14.6962 8.47776 14.7787L9.45532 15.9164C9.78986 15.629 10.0017 15.2426 10.2656 14.7855L8.96654 14.0355ZM8.21526 16.5472C8.70691 16.3551 9.12078 16.2039 9.45532 15.9164L8.47776 14.7787C8.38173 14.8612 8.25632 14.9207 7.6694 15.15L8.21526 16.5472ZM11.1863 5.02399C11.8851 5.42743 12.3431 5.69366 12.6564 5.93547C12.9525 6.16397 13.027 6.3026 13.0568 6.41393L14.5057 6.0257C14.3569 5.4702 14.0018 5.07899 13.5728 4.74795C13.1611 4.43021 12.5984 4.10719 11.9363 3.72495L11.1863 5.02399ZM13.4309 9.30289C13.8132 8.64084 14.139 8.07975 14.3367 7.59871C14.5427 7.09754 14.6546 6.5812 14.5057 6.0257L13.0568 6.41393C13.0866 6.52526 13.0915 6.68255 12.9493 7.02849C12.7988 7.39458 12.5353 7.85411 12.1319 8.55289L13.4309 9.30289ZM11.9363 3.72495C11.2743 3.34272 10.7132 3.01693 10.2322 2.81923C9.73099 2.61324 9.21465 2.50135 8.65915 2.65019L9.04738 4.09908C9.15872 4.06925 9.316 4.06443 9.66195 4.20662C10.028 4.35708 10.4876 4.62055 11.1863 5.02399L11.9363 3.72495ZM7.65744 5.96955C8.06088 5.27078 8.32712 4.81283 8.56892 4.49949C8.79743 4.20338 8.93605 4.12891 9.04738 4.09908L8.65915 2.65019C8.10365 2.79904 7.71244 3.15411 7.3814 3.58309C7.06366 3.99483 6.74064 4.5575 6.35841 5.21955L7.65744 5.96955ZM13.1564 8.27837L7.38293 4.94504L6.63292 6.24407L12.4064 9.57741L13.1564 8.27837ZM16.1746 16.1245H11.1746V17.6245H16.1746V16.1245Z" fill="white"/>
</svg>
