<svg width="14" height="13" viewBox="0 0 14 13" fill="none" xmlns="http://www.w3.org/2000/svg">
<path fill-rule="evenodd" clip-rule="evenodd" d="M7 12.168C6.02488 12.168 5.15271 11.7272 4.57182 11.0341C4.20492 11.7095 3.48934 12.168 2.66667 12.168C1.47005 12.168 0.5 11.1979 0.5 10.0013V4.66797C0.5 3.47135 1.47005 2.5013 2.66667 2.5013C3.49488 2.5013 4.21456 2.966 4.57919 3.64888C4.63875 3.55091 4.70294 3.44664 4.77209 3.33429L6.29111 0.865887C6.55802 0.432168 7.03082 0.167969 7.54009 0.167969C8.43889 0.167969 9.12622 0.969125 8.98955 1.85748L8.82752 2.91066C8.69885 3.74703 9.34595 4.5013 10.1922 4.5013H10.652C12.715 4.5013 14.0568 6.67237 13.1342 8.5176L12.3685 10.049C11.7192 11.3476 10.3918 12.168 8.93989 12.168H7ZM7.14277 1.38998C7.22768 1.25201 7.37808 1.16797 7.54009 1.16797C7.82601 1.16797 8.04465 1.42283 8.00118 1.70542L7.83915 2.75861C7.61728 4.20073 8.73307 5.5013 10.1922 5.5013H10.652C11.9716 5.5013 12.8299 6.89006 12.2398 8.07039L11.4741 9.60174C10.9942 10.5616 10.0131 11.168 8.93989 11.168H7C5.80338 11.168 4.83333 10.1979 4.83333 9.0013V6.71203C4.83333 5.92833 4.83621 5.61307 4.90431 5.31455C4.92596 5.21965 4.95249 5.12594 4.98379 5.03377C5.08223 4.74384 5.24501 4.47384 5.65575 3.8064L7.14277 1.38998ZM2.66667 3.5013C3.311 3.5013 3.83333 4.02364 3.83333 4.66797V10.0013C3.83333 10.6456 3.311 11.168 2.66667 11.168C2.02233 11.168 1.5 10.6456 1.5 10.0013V4.66797C1.5 4.02364 2.02233 3.5013 2.66667 3.5013Z" fill="#2CC379"/>
</svg>
