<svg width="20" height="20" viewBox="0 0 20 20" fill="none" xmlns="http://www.w3.org/2000/svg">
<path d="M16.364 14.4684C16.0712 14.1756 15.5963 14.1756 15.3034 14.4684C15.0105 14.7613 15.0105 15.2362 15.3034 15.5291L16.364 14.4684ZM18.6366 18.8624C18.9295 19.1553 19.4044 19.1553 19.6973 18.8624C19.9902 18.5695 19.9902 18.0946 19.6973 17.8017L18.6366 18.8624ZM7.79915 4.12409C8.20826 4.0593 8.48738 3.67511 8.42259 3.266C8.35779 2.85689 7.97361 2.57776 7.56449 2.64256L7.79915 4.12409ZM3.4775 6.72956C3.4127 7.13867 3.69182 7.52285 4.10094 7.58765C4.51005 7.65245 4.89423 7.37332 4.95903 6.96421L3.4775 6.72956ZM15.3034 15.5291L18.6366 18.8624L19.6973 17.8017L16.364 14.4684L15.3034 15.5291ZM9.16699 15.082C5.43907 15.082 2.41699 12.06 2.41699 8.33203H0.916992C0.916992 12.8884 4.61064 16.582 9.16699 16.582V15.082ZM15.917 8.33203C15.917 12.06 12.8949 15.082 9.16699 15.082V16.582C13.7233 16.582 17.417 12.8884 17.417 8.33203H15.917ZM9.16699 1.58203C12.8949 1.58203 15.917 4.60411 15.917 8.33203H17.417C17.417 3.77568 13.7233 0.0820312 9.16699 0.0820312V1.58203ZM9.16699 0.0820312C4.61064 0.0820312 0.916992 3.77568 0.916992 8.33203H2.41699C2.41699 4.60411 5.43907 1.58203 9.16699 1.58203V0.0820312ZM7.56449 2.64256C5.46069 2.97577 3.81071 4.62575 3.4775 6.72956L4.95903 6.96421C5.19058 5.50224 6.33718 4.35565 7.79915 4.12409L7.56449 2.64256Z" fill="#2D264B"/>
</svg>
