<svg width="16" height="16" viewBox="0 0 16 16" fill="none" xmlns="http://www.w3.org/2000/svg">
<path fill-rule="evenodd" clip-rule="evenodd" d="M12.8661 1.05562C14.1637 0.574652 15.4275 1.83839 14.9465 3.13604L10.9218 13.9944C10.3682 15.4858 8.22042 15.368 7.83314 13.8253L6.70231 9.30933L2.17074 8.17094C0.62879 7.78343 0.511593 5.63684 2.00247 5.08341L12.8661 1.05562ZM9.74983 13.5597L13.7744 2.70161C13.884 2.40603 13.5961 2.11815 13.3005 2.2277L2.43748 6.25527C2.09733 6.38153 2.12483 6.87048 2.47529 6.95861L7.36993 8.18821C7.59347 8.24437 7.76795 8.41898 7.82394 8.64256L9.04552 13.521C9.13382 13.8727 9.62359 13.8991 9.74983 13.5597Z" fill="#8E94AB"/>
</svg>
