<svg width="20" height="20" viewBox="0 0 20 20" fill="none" xmlns="http://www.w3.org/2000/svg">
<path d="M5.24497 4.13927C7.46731 2.52464 8.57849 1.71732 9.8475 1.67077C9.9493 1.66704 10.0512 1.66704 10.153 1.67077C11.422 1.71732 12.5332 2.52464 14.7555 4.13927C16.9779 5.7539 18.0891 6.56121 18.5255 7.75373C18.5605 7.84939 18.592 7.94631 18.6199 8.04428C18.9677 9.26556 18.5433 10.5718 17.6945 13.1844L16.2603 17.5983C16.0324 18.2997 15.3788 18.7745 14.6414 18.7745C13.7013 18.7745 12.9392 18.0124 12.9392 17.0723V14.7815C12.9392 13.8994 12.2241 13.1844 11.342 13.1844H8.65851C7.77641 13.1844 7.06132 13.8994 7.06132 14.7815V17.0723C7.06132 18.0124 6.29922 18.7745 5.35912 18.7745C4.62168 18.7745 3.96811 18.2997 3.74023 17.5983L2.30604 13.1844C1.45718 10.5718 1.03275 9.26556 1.38062 8.04428C1.40853 7.94631 1.44002 7.84939 1.47503 7.75373C1.91145 6.56121 3.02262 5.7539 5.24497 4.13927Z" stroke="#8E94AB" stroke-width="1.5"/>
</svg>
