<svg width="16" height="16" viewBox="0 0 16 16" fill="none" xmlns="http://www.w3.org/2000/svg">
<path d="M7.73166 9.44787C8.48477 9.44787 9.09529 8.83735 9.09529 8.08424C9.09529 7.33112 8.48477 6.72061 7.73166 6.72061C6.97855 6.72061 6.36803 7.33112 6.36803 8.08424C6.36803 8.83735 6.97855 9.44787 7.73166 9.44787Z" fill="#2D264B"/>
<path d="M9.43616 4.73828H6.02708C5.53121 4.73828 5.09733 4.89324 4.8184 5.17216C4.53948 5.45109 4.38452 5.88497 4.38452 6.38084V9.78992C4.38452 10.2858 4.53948 10.7197 4.8494 11.0296C5.15931 11.3085 5.5622 11.4635 6.05807 11.4635H9.43616C9.93202 11.4635 10.3659 11.3085 10.6448 11.0296C10.9547 10.7507 11.1097 10.3168 11.1097 9.82091V6.41183C11.1097 5.91596 10.9547 5.51307 10.6758 5.20316C10.3659 4.89324 9.96302 4.73828 9.43616 4.73828ZM7.73162 10.1928C6.55394 10.1928 5.62419 9.23207 5.62419 8.08538C5.62419 6.90769 6.58493 5.97795 7.73162 5.97795C8.87831 5.97795 9.87004 6.90769 9.87004 8.08538C9.87004 9.26306 8.9093 10.1928 7.73162 10.1928ZM9.93202 6.38084C9.6531 6.38084 9.43616 6.1639 9.43616 5.88497C9.43616 5.60605 9.6531 5.3891 9.93202 5.3891C10.2109 5.3891 10.4279 5.60605 10.4279 5.88497C10.4279 6.1639 10.2109 6.38084 9.93202 6.38084Z" fill="#2D264B"/>
<path d="M7.79362 0.398438C3.57876 0.398438 0.169678 3.80752 0.169678 8.02238C0.169678 12.2372 3.57876 15.6463 7.79362 15.6463C12.0085 15.6463 15.4176 12.2372 15.4176 8.02238C15.4486 3.80752 12.0085 0.398438 7.79362 0.398438ZM11.8535 9.81989C11.8535 10.5327 11.6056 11.1525 11.1717 11.5864C10.7378 12.0203 10.118 12.2372 9.43617 12.2372H6.05809C5.37627 12.2372 4.75644 12.0203 4.32256 11.5864C3.85768 11.1525 3.64074 10.5327 3.64074 9.81989V6.41081C3.64074 4.9852 4.60148 3.99347 6.05809 3.99347H9.46717C10.18 3.99347 10.7688 4.2414 11.2027 4.67528C11.6366 5.10917 11.8535 5.69801 11.8535 6.41081V9.81989Z" fill="#2D264B"/>
</svg>
