<svg width="16" height="14" viewBox="0 0 16 14" fill="none" xmlns="http://www.w3.org/2000/svg">
<path d="M3.28595 4.28595L3.81628 3.75562L3.28595 4.28595ZM2 3L1.46967 3.53033H1.46967L2 3ZM7.33333 12.25C6.91912 12.25 6.58333 12.5858 6.58333 13C6.58333 13.4142 6.91912 13.75 7.33333 13.75V12.25ZM14.0301 11.626L13.4233 11.1851V11.1851L14.0301 11.626ZM13.2926 12.3634L12.8518 11.7566L13.2926 12.3634ZM13.2926 1.63661L13.7335 1.02985V1.02985L13.2926 1.63661ZM14.0301 2.37405L13.4233 2.81489V2.81489L14.0301 2.37405ZM2.70738 1.63661L2.26654 1.02985L2.26654 1.02985L2.70738 1.63661ZM0.583331 7C0.583331 7.41421 0.919117 7.75 1.33333 7.75C1.74754 7.75 2.08333 7.41421 2.08333 7H0.583331ZM1.96994 2.37405L1.36318 1.93321L1.36318 1.93321L1.96994 2.37405ZM0.666664 10.9167C0.252451 10.9167 -0.0833359 11.2525 -0.0833359 11.6667C-0.0833359 12.0809 0.252451 12.4167 0.666664 12.4167V10.9167ZM4.66666 12.4167C5.08088 12.4167 5.41666 12.0809 5.41666 11.6667C5.41666 11.2525 5.08088 10.9167 4.66666 10.9167V12.4167ZM0.666664 8.91667C0.252451 8.91667 -0.0833359 9.25245 -0.0833359 9.66667C-0.0833359 10.0809 0.252451 10.4167 0.666664 10.4167V8.91667ZM2.66666 10.4167C3.08088 10.4167 3.41666 10.0809 3.41666 9.66667C3.41666 9.25245 3.08088 8.91667 2.66666 8.91667V10.4167ZM1.74735 2.74735L1.0717 2.42178L1.74735 2.74735ZM3.81628 3.75562L2.61121 2.55055L1.55055 3.61121L2.75562 4.81628L3.81628 3.75562ZM13.3888 2.55055L12.1837 3.75562L13.2444 4.81628L14.4494 3.61121L13.3888 2.55055ZM2.75562 4.81628C3.85174 5.9124 4.72605 6.78897 5.50361 7.38222C6.29846 7.98868 7.07972 8.36929 8 8.36929V6.86929C7.53956 6.86929 7.07491 6.69434 6.41348 6.18969C5.73474 5.67183 4.94239 4.88173 3.81628 3.75562L2.75562 4.81628ZM12.1837 3.75562C11.0576 4.88173 10.2653 5.67183 9.58652 6.18969C8.92509 6.69434 8.46044 6.86929 8 6.86929V8.36929C8.92027 8.36929 9.70153 7.98868 10.4964 7.38222C11.2739 6.78897 12.1483 5.9124 13.2444 4.81628L12.1837 3.75562ZM3.81628 3.75562L2.53033 2.46967L1.46967 3.53033L2.75562 4.81628L3.81628 3.75562ZM13.4697 2.46967L12.1837 3.75562L13.2444 4.81628L14.5303 3.53033L13.4697 2.46967ZM7.33333 1.75H8.66666V0.25H7.33333V1.75ZM8.66666 12.25H7.33333V13.75H8.66666V12.25ZM13.9167 7C13.9167 8.26662 13.9156 9.15634 13.8415 9.84104C13.7688 10.5117 13.6332 10.8962 13.4233 11.1851L14.6368 12.0668C15.0635 11.4795 15.2462 10.8009 15.3327 10.0026C15.4177 9.21835 15.4167 8.2332 15.4167 7H13.9167ZM8.66666 13.75C9.89987 13.75 10.885 13.751 11.6693 13.6661C12.4676 13.5796 13.1462 13.3968 13.7335 12.9702L12.8518 11.7566C12.5628 11.9666 12.1784 12.1021 11.5077 12.1748C10.823 12.249 9.93328 12.25 8.66666 12.25V13.75ZM13.4233 11.1851C13.264 11.4044 13.0711 11.5973 12.8518 11.7566L13.7335 12.9702C14.0801 12.7183 14.385 12.4134 14.6368 12.0668L13.4233 11.1851ZM8.66666 1.75C9.93328 1.75 10.823 1.75103 11.5077 1.82521C12.1784 1.89788 12.5628 2.03344 12.8518 2.24337L13.7335 1.02985C13.1462 0.603171 12.4676 0.42043 11.6693 0.33394C10.885 0.248971 9.89987 0.25 8.66666 0.25V1.75ZM12.8518 2.24337C13.0711 2.40271 13.264 2.59558 13.4233 2.81489L14.6368 1.93321C14.385 1.58656 14.0801 1.28171 13.7335 1.02985L12.8518 2.24337ZM7.33333 0.25C6.10013 0.25 5.11498 0.248971 4.33072 0.33394C3.53242 0.42043 2.85381 0.603171 2.26654 1.02985L3.14822 2.24337C3.43717 2.03344 3.82162 1.89788 4.49229 1.82521C5.177 1.75103 6.06671 1.75 7.33333 1.75V0.25ZM2.26654 1.02985C1.91989 1.28171 1.61504 1.58656 1.36318 1.93321L2.5767 2.81489C2.73604 2.59558 2.92891 2.40271 3.14822 2.24337L2.26654 1.02985ZM0.666664 12.4167H4.66666V10.9167H0.666664V12.4167ZM0.666664 10.4167H2.66666V8.91667H0.666664V10.4167ZM2.08333 7C2.08333 5.90628 2.08382 5.09057 2.13295 4.4402C2.18195 3.7916 2.2757 3.37861 2.423 3.07292L1.0717 2.42178C0.80498 2.97531 0.69172 3.60573 0.637214 4.3272C0.582844 5.04689 0.583331 5.92789 0.583331 7H2.08333ZM2.423 3.07292C2.46788 2.9798 2.51868 2.89475 2.5767 2.81489L1.36318 1.93321C1.25109 2.08748 1.15452 2.24991 1.0717 2.42178L2.423 3.07292ZM2.53033 2.46967L2.27768 2.21702L1.21702 3.27768L1.46967 3.53033L2.53033 2.46967ZM15.4167 7C15.4167 5.92789 15.4172 5.04689 15.3628 4.3272C15.3083 3.60573 15.195 2.97531 14.9283 2.42178L13.577 3.07292C13.7243 3.37861 13.818 3.7916 13.867 4.44019C13.9162 5.09057 13.9167 5.90628 13.9167 7H15.4167ZM14.9283 2.42178C14.8455 2.24991 14.7489 2.08748 14.6368 1.93321L13.4233 2.81489C13.4813 2.89475 13.5321 2.9798 13.577 3.07292L14.9283 2.42178ZM14.5303 3.53033L14.783 3.27768L13.7223 2.21702L13.4697 2.46967L14.5303 3.53033Z" fill="#8E94AB"/>
</svg>
