<svg width="18" height="15" viewBox="0 0 18 15" fill="none" xmlns="http://www.w3.org/2000/svg">
<path fill-rule="evenodd" clip-rule="evenodd" d="M5.75 2.16709C5.2893 2.27054 4.84561 2.47061 4.45 2.76732L2.61667 4.14232C2.38584 4.31543 2.25 4.58712 2.25 4.87565V12.0665C2.25 12.7776 3.06179 13.1835 3.63065 12.7568C4.26952 12.2777 4.99873 11.9785 5.75 11.8594V2.16709ZM7.25 2.16709V11.8594C8.00127 11.9785 8.73048 12.2777 9.36935 12.7568L8.93152 13.3406L9.36936 12.7568L9.45 12.8173L9 13.4173L9.45 12.8173C9.84561 13.114 10.2893 13.3141 10.75 13.4176V3.72519C9.99873 3.60611 9.26952 3.30696 8.63064 2.8278L8.98203 2.35929L8.63064 2.8278L8.55 2.76732C8.15439 2.47061 7.7107 2.27054 7.25 2.16709ZM12.25 3.72519V13.4176C12.7107 13.3141 13.1544 13.114 13.55 12.8173L15.3833 11.4423C15.6142 11.2692 15.75 10.9975 15.75 10.709V3.51812C15.75 2.80705 14.9382 2.40116 14.3694 2.8278C13.7305 3.30696 13.0013 3.6061 12.25 3.72519ZM3.55 1.56732C4.42401 0.911809 5.46246 0.583984 6.5 0.583984C7.53754 0.583984 8.57599 0.911809 9.45 1.56732L9.0034 2.16278L9.45 1.56732L9.53065 1.6278L9.08064 2.2278L9.53065 1.6278C10.1142 2.06548 10.8067 2.28425 11.5 2.28425C12.1933 2.28425 12.8858 2.06548 13.4694 1.6278C15.0271 0.459518 17.25 1.57098 17.25 3.51812V10.709C17.25 11.4696 16.8919 12.1859 16.2833 12.6423L14.45 14.0173C13.576 14.6728 12.5375 15.0007 11.5 15.0007C10.4625 15.0007 9.42401 14.6728 8.55 14.0173L8.94512 13.4905L8.55 14.0173L8.46935 13.9568C7.88578 13.5192 7.19334 13.3004 6.5 13.3004C5.80666 13.3004 5.11422 13.5192 4.53065 13.9568C2.97293 15.1251 0.75 14.0137 0.75 12.0665V4.87565C0.75 4.11499 1.10814 3.39872 1.71667 2.94232L3.55 1.56732Z" fill="#2CC379"/>
</svg>
