<svg width="59.99999999999999" height="68" xmlns="http://www.w3.org/2000/svg" xmlns:xlink="http://www.w3.org/1999/xlink">
 <defs>
  <filter id="a" filterUnits="objectBoundingBox" height="138.5%" width="143.5%" y="-15.4%" x="-21.7%">
   <feGaussianBlur stdDeviation="3"/>
  </filter>
  <path id="b" d="m23.51,51.523a0.5,0.5 0 0 1 -0.5,0.477c-0.29,0 -0.51,-0.21 -0.52,-0.477c-0.145,-3.168 -1.756,-5.217 -4.832,-6.147c-10.128,-2.408 -17.658,-11.513 -17.658,-22.376c0,-12.703 10.297,-23 23,-23s23,10.297 23,23c0,10.863 -7.53,19.968 -17.658,22.376c-3.076,0.93 -4.687,2.98 -4.83,6.147l-0.002,0z"/>
 </defs>
 <g>
  <title>background</title>
  <rect fill="none" id="canvas_background" height="70" width="62" y="-1" x="-1"/>
 </g>
 <g>
  <title>Layer 1</title>
  <g id="svg_1" fill-rule="evenodd" fill="none">
   <g id="svg_2" fill="red" fill-rule="nonzero">
    <use id="svg_3" x="7" y="5" xlink:href="#b" filter="url(#a)"/>
    <use id="svg_4" x="7" y="5" xlink:href="#b"/>
   </g>
   <path id="svg_5" fill-rule="nonzero" fill="#fff" d="m30,68c-2.21,0 -4,-1.79 -4,-4s1.79,-4 4,-4s4,1.79 4,4s-1.79,4 -4,4z"/>
   <path id="svg_6" fill="red" d="m30,66a2,2 0 1 0 0.001,-3.999a2,2 0 0 0 -0.001,3.999z"/>
  </g>
  <path id="svg_7" fill="#ffffff" d="m27.570193,20.235319c-0.087,0.17 -0.087,0.395 -0.087,0.843l0,4.22l-4.22,0c-0.448,0 -0.672,0 -0.843,0.087a0.8,0.8 0 0 0 -0.35,0.35c-0.087,0.17 -0.087,0.395 -0.087,0.843l0,2.44c0,0.448 0,0.672 0.087,0.843a0.8,0.8 0 0 0 0.35,0.35c0.17,0.087 0.395,0.087 0.843,0.087l4.22,0l0,4.22c0,0.448 0,0.672 0.087,0.843a0.8,0.8 0 0 0 0.35,0.35c0.17,0.087 0.395,0.087 0.843,0.087l2.44,0c0.448,0 0.672,0 0.843,-0.087a0.8,0.8 0 0 0 0.35,-0.35c0.087,-0.17 0.087,-0.395 0.087,-0.843l0,-4.22l4.22,0c0.448,0 0.672,0 0.843,-0.087a0.8,0.8 0 0 0 0.35,-0.35c0.087,-0.17 0.087,-0.395 0.087,-0.843l0,-2.44c0,-0.448 0,-0.672 -0.087,-0.843a0.8,0.8 0 0 0 -0.35,-0.35c-0.17,-0.087 -0.395,-0.087 -0.843,-0.087l-4.22,0l0,-4.22c0,-0.448 0,-0.672 -0.087,-0.843a0.8,0.8 0 0 0 -0.35,-0.35c-0.17,-0.087 -0.395,-0.087 -0.843,-0.087l-2.44,0c-0.448,0 -0.672,0 -0.843,0.087a0.8,0.8 0 0 0 -0.35,0.35z"/>
 </g>
</svg>