<svg width="15" height="16" viewBox="0 0 15 16" fill="none" xmlns="http://www.w3.org/2000/svg">
<path d="M5.44266 13.8505L5.16973 13.152L5.44266 13.8505ZM2.06232 14.4997L1.68732 15.1492H1.68732L2.06232 14.4997ZM0.934306 11.2476L0.192857 11.3606L0.934306 11.2476ZM1.34289 9.07908L1.99241 9.45408L1.34289 9.07908ZM0.856097 10.1101L0.119064 9.97127H0.119064L0.856097 10.1101ZM7.11639 12.4124L7.76591 12.7874L7.11639 12.4124ZM6.46687 13.3495L6.95565 13.9184H6.95565L6.46687 13.3495ZM4.50825 3.59651L3.85873 3.22151L4.50825 3.59651ZM13.6749 15.6264C14.0891 15.6264 14.4249 15.2906 14.4249 14.8764C14.4249 14.4622 14.0891 14.1264 13.6749 14.1264V15.6264ZM8.67492 14.1264C8.26071 14.1264 7.92492 14.4622 7.92492 14.8764C7.92492 15.2906 8.26071 15.6264 8.67492 15.6264V14.1264ZM9.63224 6.55484L6.46687 12.0374L7.76591 12.7874L10.9313 7.30484L9.63224 6.55484ZM1.99241 9.45408L5.15777 3.97151L3.85873 3.22151L0.693368 8.70408L1.99241 9.45408ZM5.16973 13.152C4.25236 13.5104 3.63993 13.7477 3.17035 13.8574C2.72037 13.9625 2.54715 13.9135 2.43732 13.8501L1.68732 15.1492C2.27122 15.4863 2.89262 15.4626 3.51161 15.318C4.111 15.178 4.84187 14.8905 5.71558 14.5491L5.16973 13.152ZM0.192857 11.3606C0.334093 12.2879 0.450523 13.0646 0.62894 13.6537C0.813192 14.2621 1.10342 14.8121 1.68732 15.1492L2.43732 13.8501C2.3275 13.7867 2.19849 13.6612 2.06454 13.2189C1.92477 12.7574 1.82405 12.1084 1.67576 11.1347L0.192857 11.3606ZM0.693368 8.70408C0.429446 9.16121 0.20073 9.53783 0.119064 9.97127L1.59313 10.249C1.61657 10.1246 1.67735 9.99978 1.99241 9.45408L0.693368 8.70408ZM1.67576 11.1347C1.58088 10.5118 1.56969 10.3734 1.59313 10.249L0.119064 9.97127C0.0373991 10.4047 0.11338 10.8387 0.192857 11.3606L1.67576 11.1347ZM6.46687 12.0374C6.15181 12.5831 6.07412 12.6981 5.97809 12.7807L6.95565 13.9184C7.29018 13.6309 7.50199 13.2445 7.76591 12.7874L6.46687 12.0374ZM5.71558 14.5491C6.20724 14.357 6.62111 14.2058 6.95565 13.9184L5.97809 12.7807C5.88206 12.8632 5.75664 12.9227 5.16973 13.152L5.71558 14.5491ZM8.68667 3.02594C9.38545 3.42938 9.84339 3.69561 10.1567 3.93742C10.4528 4.16593 10.5273 4.30455 10.5571 4.41588L12.006 4.02765C11.8572 3.47215 11.5021 3.08094 11.0731 2.7499C10.6614 2.43216 10.0987 2.10914 9.43667 1.7269L8.68667 3.02594ZM10.9313 7.30484C11.3135 6.64279 11.6393 6.08171 11.837 5.60067C12.043 5.09949 12.1549 4.58315 12.006 4.02765L10.5571 4.41588C10.587 4.52721 10.5918 4.6845 10.4496 5.03045C10.2991 5.39653 10.0357 5.85607 9.63224 6.55484L10.9313 7.30484ZM9.43667 1.7269C8.77462 1.34467 8.21354 1.01889 7.73249 0.821179C7.23132 0.615196 6.71498 0.503299 6.15948 0.652145L6.54771 2.10103C6.65904 2.0712 6.81633 2.06639 7.16228 2.20857C7.52836 2.35903 7.9879 2.6225 8.68667 3.02594L9.43667 1.7269ZM5.15777 3.97151C5.56121 3.27273 5.82744 2.81479 6.06925 2.50145C6.29776 2.20534 6.43638 2.13086 6.54771 2.10103L6.15948 0.652145C5.60398 0.800991 5.21277 1.15606 4.88173 1.58504C4.56399 1.99678 4.24097 2.55946 3.85873 3.22151L5.15777 3.97151ZM10.6568 6.28032L4.88325 2.94699L4.13325 4.24603L9.90676 7.57936L10.6568 6.28032ZM13.6749 14.1264H8.67492V15.6264H13.6749V14.1264Z" fill="white"/>
</svg>
