<svg width="14" height="14" viewBox="0 0 14 14" fill="none" xmlns="http://www.w3.org/2000/svg">
<path fill-rule="evenodd" clip-rule="evenodd" d="M3.62977 1.82977C3.36834 1.58955 2.9665 1.58955 2.70508 1.82977C2.69699 1.8372 2.6853 1.84868 2.63351 1.90048L2.04261 2.49137C1.71856 2.81542 1.58253 3.28257 1.68194 3.72994C2.63306 8.00997 5.97568 11.3526 10.2557 12.3037C10.7031 12.4031 11.1702 12.2671 11.4943 11.943L12.0852 11.3521C12.137 11.3003 12.1484 11.2887 12.1559 11.2806C12.3961 11.0191 12.3961 10.6173 12.1559 10.3559C12.1484 10.3478 12.137 10.3361 12.0852 10.2843L11.113 9.31218C10.7673 8.96645 10.2452 8.86758 9.79701 9.06295C8.85883 9.4719 7.76595 9.26492 7.04227 8.54125L5.4444 6.94337C4.72072 6.2197 4.51375 5.12682 4.9227 4.18864C5.11807 3.74044 5.01919 3.21833 4.67347 2.87261L3.70134 1.90048C3.64954 1.84868 3.63785 1.8372 3.62977 1.82977ZM1.82549 0.872524C2.58427 0.175305 3.75058 0.175305 4.50936 0.872524C4.54053 0.901166 4.57344 0.93409 4.61215 0.972809C4.61493 0.975588 4.61773 0.978398 4.62057 0.981238L5.59271 1.95337C6.31638 2.67705 6.52335 3.76992 6.11441 4.7081C5.91904 5.1563 6.01791 5.67841 6.36364 6.02413L7.96151 7.62201C8.30724 7.96773 8.82935 8.06661 9.27755 7.87124C10.2157 7.46229 11.3086 7.66926 12.0323 8.39294L13.0128 9.3735C13.0516 9.41221 13.0845 9.44512 13.1131 9.47629C13.8103 10.2351 13.8103 11.4014 13.1131 12.1602C13.0845 12.1913 13.0516 12.2242 13.0129 12.2629L12.4135 12.8623C11.7752 13.5006 10.855 13.7686 9.9737 13.5727C5.20094 12.5121 1.47351 8.78471 0.4129 4.01195C0.217066 3.1307 0.485036 2.21047 1.12338 1.57213L1.71427 0.981238C1.71711 0.978401 1.71991 0.975595 1.72269 0.972819C1.7614 0.934095 1.79431 0.901169 1.82549 0.872524Z" fill="#8E94AB"/>
</svg>
