<svg width="18" height="18" viewBox="0 0 18 18" fill="none" xmlns="http://www.w3.org/2000/svg">
<path d="M14.8291 2.86609C14.318 2.705 13.7438 2.62679 13.0803 2.58585C12.322 2.53906 11.4004 2.53906 10.2697 2.53906H7.7176C6.38145 2.53906 5.33398 2.53905 4.49716 2.61862C3.6442 2.69972 2.94578 2.86787 2.3301 3.24516C1.68535 3.64026 1.14327 4.18234 0.74817 4.82709C0.734172 4.84993 0.720462 4.87289 0.707034 4.89596C0.771446 3.69334 0.939685 2.89683 1.37911 2.26629C1.60907 1.93631 1.88741 1.64613 2.20392 1.40639C3.18396 0.664062 4.58196 0.664062 7.37797 0.664062H11.8519C13.2579 0.664062 13.9609 0.664062 14.3977 1.11944C14.7332 1.46918 14.811 1.98263 14.8291 2.86609Z" fill="#EB5757"/>
<path d="M1.28099 5.15365C0.666992 6.15561 0.666992 7.51954 0.666992 10.2474C0.666992 12.9753 0.666992 14.3392 1.28099 15.3411C1.62456 15.9018 2.09593 16.3732 2.65658 16.7167C3.65854 17.3307 5.02247 17.3307 7.75033 17.3307H10.2503C12.9782 17.3307 14.3421 17.3307 15.3441 16.7167C15.9047 16.3732 16.3761 15.9018 16.7197 15.3411C17.1229 14.6831 17.2613 13.8689 17.3088 12.6148H12.0307C10.4303 12.6148 9.13297 11.3175 9.13297 9.71711C9.13297 8.11674 10.4303 6.81938 12.0307 6.81938H17.2317C17.1482 6.12967 16.9962 5.60494 16.7197 5.15365C16.3761 4.593 15.9047 4.12163 15.3441 3.77806C15.1845 3.68026 15.0157 3.59803 14.8337 3.5289C13.873 3.16406 12.5437 3.16406 10.2503 3.16406H7.75033C5.02247 3.16406 3.65854 3.16406 2.65658 3.77806C2.09593 4.12163 1.62456 4.593 1.28099 5.15365Z" fill="#EB5757"/>
<path fill-rule="evenodd" clip-rule="evenodd" d="M17.3152 8.06938H12.0307C11.1207 8.06938 10.383 8.80709 10.383 9.71711C10.383 10.6271 11.1207 11.3648 12.0307 11.3648H17.3317C17.3337 11.0197 17.3337 10.6483 17.3337 10.2474C17.3337 9.3997 17.3337 8.68372 17.3152 8.06938ZM12.0307 9.09211C11.6855 9.09211 11.4057 9.37193 11.4057 9.71711C11.4057 10.0623 11.6855 10.3421 12.0307 10.3421H14.3034C14.6486 10.3421 14.9284 10.0623 14.9284 9.71711C14.9284 9.37193 14.6486 9.09211 14.3034 9.09211H12.0307Z" fill="#EB5757"/>
</svg>
