<svg width="18" height="15" viewBox="0 0 18 15" fill="none" xmlns="http://www.w3.org/2000/svg">
<path d="M6.5 1.33203C5.62037 1.33203 4.74074 1.60981 4 2.16536L2.16667 3.54036C1.74699 3.85512 1.5 4.3491 1.5 4.8737V12.0646C1.5 13.3937 3.01736 14.1523 4.08065 13.3549C4.79749 12.8172 5.64875 12.5484 6.5 12.5484M6.5 1.33203C7.37963 1.33203 8.25926 1.60981 9 2.16536L9.08064 2.22585C9.79749 2.76348 10.6487 3.0323 11.5 3.0323M6.5 1.33203V1.95703V11.957V12.5484M11.5 3.0323C12.3513 3.0323 13.2025 2.76348 13.9194 2.22585C14.9826 1.42839 16.5 2.18707 16.5 3.51617V10.707C16.5 11.2316 16.253 11.7256 15.8333 12.0404L14 13.4154C13.2593 13.9709 12.3796 14.2487 11.5 14.2487M11.5 3.0323V3.6237V13.6237V14.2487M11.5 14.2487C10.6204 14.2487 9.74074 13.9709 9 13.4154L8.91935 13.3549C8.20251 12.8172 7.35125 12.5484 6.5 12.5484" stroke="#2CC379" stroke-width="1.5" stroke-linecap="round"/>
</svg>
