<svg width="20" height="20" viewBox="0 0 20 20" fill="none" xmlns="http://www.w3.org/2000/svg">
<g clip-path="url(#clip0_215_1872)">
<path d="M16.3637 14.4704C16.0708 14.1775 15.596 14.1775 15.3031 14.4704C15.0102 14.7633 15.0102 15.2382 15.3031 15.5311L16.3637 14.4704ZM18.6363 18.8643C18.9292 19.1572 19.4041 19.1572 19.697 18.8644C19.9899 18.5715 19.9899 18.0966 19.697 17.8037L18.6363 18.8643ZM7.79882 4.12605C8.20794 4.06125 8.48706 3.67707 8.42227 3.26795C8.35747 2.85884 7.97329 2.57972 7.56417 2.64451L7.79882 4.12605ZM3.47717 6.73151C3.41238 7.14062 3.6915 7.52481 4.10062 7.5896C4.50973 7.6544 4.89391 7.37528 4.95871 6.96616L3.47717 6.73151ZM15.3031 15.5311L18.6363 18.8643L19.697 17.8037L16.3637 14.4704L15.3031 15.5311ZM9.16667 15.084C5.43875 15.084 2.41667 12.0619 2.41667 8.33398H0.916672C0.916672 12.8903 4.61032 16.584 9.16667 16.584V15.084ZM15.9167 8.33398C15.9167 12.0619 12.8946 15.084 9.16667 15.084V16.584C13.723 16.584 17.4167 12.8903 17.4167 8.33398H15.9167ZM9.16667 1.58398C12.8946 1.58398 15.9167 4.60606 15.9167 8.33398H17.4167C17.4167 3.77764 13.723 0.0839844 9.16667 0.0839844V1.58398ZM9.16667 0.0839844C4.61032 0.0839844 0.916672 3.77764 0.916672 8.33398H2.41667C2.41667 4.60606 5.43875 1.58398 9.16667 1.58398V0.0839844ZM7.56417 2.64451C5.46037 2.97772 3.81038 4.62771 3.47717 6.73151L4.95871 6.96616C5.19026 5.5042 6.33686 4.3576 7.79882 4.12605L7.56417 2.64451Z" fill="#2D264B"/>
</g>
<defs>
<clipPath id="clip0_215_1872">
<rect width="20" height="20" fill="white"/>
</clipPath>
</defs>
</svg>
