<svg width="18" height="20" viewBox="0 0 18 20" fill="none" xmlns="http://www.w3.org/2000/svg">
<path d="M2.98514 6.61472L3.10247 7.35548H3.10247L2.98514 6.61472ZM6.4487 3.15116L7.18947 3.26849V3.26849L6.4487 3.15116ZM14.7824 17.5369L14.3416 16.9302L14.7824 17.5369ZM15.7042 16.6151L15.0975 16.1743L15.7042 16.6151ZM2.29576 16.6151L2.90252 16.1743L2.29576 16.6151ZM3.21756 17.5369L3.6584 16.9302L3.21756 17.5369ZM3.21756 2.46178L2.77672 1.85502L3.21756 2.46178ZM2.29576 3.38358L1.689 2.94274L2.29576 3.38358ZM14.7824 2.46178L14.3416 3.06854L14.7824 2.46178ZM15.7042 3.38358L15.0975 3.82442L15.7042 3.38358ZM6.5 1.69012L6.47432 0.940562L6.5 1.69012ZM1.52411 6.66602L0.774547 6.64033L1.52411 6.66602ZM9.83333 12.5827C9.41912 12.5827 9.08333 12.9185 9.08333 13.3327C9.08333 13.7469 9.41912 14.0827 9.83333 14.0827V12.5827ZM12.3333 14.0827C12.7475 14.0827 13.0833 13.7469 13.0833 13.3327C13.0833 12.9185 12.7475 12.5827 12.3333 12.5827V14.0827ZM5.66667 9.24935C5.25245 9.24935 4.91667 9.58513 4.91667 9.99935C4.91667 10.4136 5.25245 10.7493 5.66667 10.7493V9.24935ZM12.3333 10.7493C12.7475 10.7493 13.0833 10.4136 13.0833 9.99935C13.0833 9.58513 12.7475 9.24935 12.3333 9.24935V10.7493ZM9.83333 5.91602C9.41912 5.91602 9.08333 6.2518 9.08333 6.66602C9.08333 7.08023 9.41912 7.41602 9.83333 7.41602V5.91602ZM12.3333 7.41602C12.7475 7.41602 13.0833 7.08023 13.0833 6.66602C13.0833 6.2518 12.7475 5.91602 12.3333 5.91602V7.41602ZM3.10247 7.35548C5.20627 7.02227 6.85626 5.37229 7.18947 3.26849L5.70793 3.03383C5.47638 4.4958 4.32978 5.6424 2.86782 5.87395L3.10247 7.35548ZM0.75 9.16602V10.8327H2.25V9.16602H0.75ZM17.25 10.8327V9.16602H15.75V10.8327H17.25ZM9 19.0827C10.5457 19.0827 11.7652 19.0837 12.7331 18.9788C13.715 18.8725 14.5265 18.6499 15.2233 18.1437L14.3416 16.9302C13.9431 17.2197 13.4258 17.395 12.5715 17.4876C11.7032 17.5817 10.5791 17.5827 9 17.5827V19.0827ZM15.75 10.8327C15.75 12.4118 15.749 13.5359 15.6549 14.4042C15.5623 15.2585 15.387 15.7758 15.0975 16.1743L16.311 17.056C16.8173 16.3592 17.0398 15.5477 17.1462 14.5658C17.251 13.5979 17.25 12.3784 17.25 10.8327H15.75ZM15.2233 18.1437C15.6407 17.8404 16.0077 17.4734 16.311 17.056L15.0975 16.1743C14.8867 16.4643 14.6317 16.7194 14.3416 16.9302L15.2233 18.1437ZM0.75 10.8327C0.75 12.3784 0.74897 13.5979 0.853833 14.5658C0.960217 15.5477 1.18275 16.3592 1.689 17.056L2.90252 16.1743C2.61301 15.7758 2.43766 15.2585 2.34511 14.4042C2.25103 13.5359 2.25 12.4118 2.25 10.8327H0.75ZM9 17.5827C7.42091 17.5827 6.29683 17.5817 5.4285 17.4876C4.57421 17.395 4.05688 17.2197 3.6584 16.9302L2.77672 18.1437C3.47352 18.6499 4.28502 18.8725 5.26693 18.9788C6.23481 19.0837 7.45432 19.0827 9 19.0827V17.5827ZM1.689 17.056C1.99226 17.4734 2.35932 17.8404 2.77672 18.1437L3.6584 16.9302C3.36834 16.7194 3.11326 16.4643 2.90252 16.1743L1.689 17.056ZM2.77672 1.85502C2.35932 2.15827 1.99226 2.52534 1.689 2.94274L2.90252 3.82442C3.11326 3.53436 3.36834 3.27928 3.6584 3.06854L2.77672 1.85502ZM9 2.41602C10.5791 2.41602 11.7032 2.41705 12.5715 2.51112C13.4258 2.60368 13.9431 2.77903 14.3416 3.06854L15.2233 1.85502C14.5265 1.34876 13.715 1.12623 12.7331 1.01985C11.7652 0.914986 10.5457 0.916016 9 0.916016V2.41602ZM17.25 9.16602C17.25 7.62033 17.251 6.40083 17.1462 5.43295C17.0398 4.45103 16.8173 3.63953 16.311 2.94274L15.0975 3.82442C15.387 4.22289 15.5623 4.74023 15.6549 5.59452C15.749 6.46284 15.75 7.58692 15.75 9.16602H17.25ZM14.3416 3.06854C14.6317 3.27928 14.8867 3.53436 15.0975 3.82442L16.311 2.94274C16.0077 2.52534 15.6407 2.15827 15.2233 1.85502L14.3416 3.06854ZM9 0.916016C8.03005 0.916016 7.19352 0.915922 6.47432 0.940562L6.52568 2.43968C7.21372 2.41611 8.02174 2.41602 9 2.41602V0.916016ZM6.47432 0.940562C4.91157 0.994104 3.72962 1.1627 2.77672 1.85502L3.6584 3.06854C4.21318 2.66547 4.98145 2.49259 6.52568 2.43968L6.47432 0.940562ZM5.75 1.69012C5.74999 2.47574 5.74718 2.78607 5.70793 3.03383L7.18947 3.26849C7.25175 2.87523 7.24999 2.42077 7.25 1.69013L5.75 1.69012ZM2.25 9.16602C2.25 8.18776 2.25009 7.37974 2.27367 6.6917L0.774547 6.64033C0.749906 7.35954 0.75 8.19606 0.75 9.16602H2.25ZM2.27367 6.6917C2.32657 5.14747 2.49945 4.3792 2.90252 3.82442L1.689 2.94274C0.996682 3.89563 0.828089 5.07759 0.774547 6.64033L2.27367 6.6917ZM1.52411 7.41602C2.25476 7.41601 2.70922 7.41777 3.10247 7.35548L2.86782 5.87395C2.62005 5.91319 2.30973 5.91601 1.5241 5.91602L1.52411 7.41602ZM9.83333 14.0827H12.3333V12.5827H9.83333V14.0827ZM5.66667 10.7493H12.3333V9.24935H5.66667V10.7493ZM9.83333 7.41602H12.3333V5.91602H9.83333V7.41602Z" fill="white"/>
</svg>
