<svg width="17" height="19" viewBox="0 0 17 19" fill="none" xmlns="http://www.w3.org/2000/svg">
<path d="M9.66665 11.5827C10.0809 11.5827 10.4166 11.2469 10.4166 10.8327C10.4166 10.4185 10.0809 10.0827 9.66665 10.0827V11.5827ZM9.66665 18.2493C10.0809 18.2493 10.4166 17.9136 10.4166 17.4993C10.4166 17.0851 10.0809 16.7493 9.66665 16.7493V18.2493ZM10.5 13.416C10.0858 13.416 9.74998 13.7518 9.74998 14.166C9.74998 14.5802 10.0858 14.916 10.5 14.916V13.416ZM15.5 14.916C15.9142 14.916 16.25 14.5802 16.25 14.166C16.25 13.7518 15.9142 13.416 15.5 13.416V14.916ZM12.25 16.666C12.25 17.0802 12.5858 17.416 13 17.416C13.4142 17.416 13.75 17.0802 13.75 16.666H12.25ZM13.75 11.666C13.75 11.2518 13.4142 10.916 13 10.916C12.5858 10.916 12.25 11.2518 12.25 11.666H13.75ZM9.74998 4.99935C9.74998 6.42608 8.59338 7.58268 7.16665 7.58268V9.08268C9.42181 9.08268 11.25 7.25451 11.25 4.99935H9.74998ZM7.16665 7.58268C5.73991 7.58268 4.58331 6.42608 4.58331 4.99935H3.08331C3.08331 7.25451 4.91148 9.08268 7.16665 9.08268V7.58268ZM4.58331 4.99935C4.58331 3.57261 5.73991 2.41602 7.16665 2.41602V0.916016C4.91148 0.916016 3.08331 2.74419 3.08331 4.99935H4.58331ZM7.16665 2.41602C8.59338 2.41602 9.74998 3.57261 9.74998 4.99935H11.25C11.25 2.74419 9.42181 0.916016 7.16665 0.916016V2.41602ZM4.66665 11.5827H9.66665V10.0827H4.66665V11.5827ZM9.66665 16.7493H4.66665V18.2493H9.66665V16.7493ZM4.66665 16.7493C3.23991 16.7493 2.08331 15.5928 2.08331 14.166H0.583313C0.583313 16.4212 2.41148 18.2493 4.66665 18.2493V16.7493ZM4.66665 10.0827C2.41148 10.0827 0.583313 11.9109 0.583313 14.166H2.08331C2.08331 12.7393 3.23991 11.5827 4.66665 11.5827V10.0827ZM10.5 14.916H15.5V13.416H10.5V14.916ZM13.75 16.666V11.666H12.25V16.666H13.75Z" fill="#8E94AB"/>
</svg>
