<svg width="17" height="19" viewBox="0 0 17 19" fill="none" xmlns="http://www.w3.org/2000/svg">
<path d="M9.66634 11.5846C10.0806 11.5846 10.4163 11.2488 10.4163 10.8346C10.4163 10.4204 10.0806 10.0846 9.66634 10.0846V11.5846ZM9.66634 18.2513C10.0806 18.2513 10.4163 17.9155 10.4163 17.5013C10.4163 17.0871 10.0806 16.7513 9.66634 16.7513V18.2513ZM10.4997 13.418C10.0855 13.418 9.74967 13.7538 9.74967 14.168C9.74967 14.5822 10.0855 14.918 10.4997 14.918V13.418ZM15.4997 14.918C15.9139 14.918 16.2497 14.5822 16.2497 14.168C16.2497 13.7538 15.9139 13.418 15.4997 13.418V14.918ZM12.2497 16.668C12.2497 17.0822 12.5855 17.418 12.9997 17.418C13.4139 17.418 13.7497 17.0822 13.7497 16.668H12.2497ZM13.7497 11.668C13.7497 11.2538 13.4139 10.918 12.9997 10.918C12.5855 10.918 12.2497 11.2538 12.2497 11.668H13.7497ZM9.74967 5.0013C9.74967 6.42804 8.59308 7.58464 7.16634 7.58464V9.08464C9.4215 9.08464 11.2497 7.25646 11.2497 5.0013H9.74967ZM7.16634 7.58464C5.73961 7.58464 4.58301 6.42804 4.58301 5.0013H3.08301C3.08301 7.25646 4.91118 9.08464 7.16634 9.08464V7.58464ZM4.58301 5.0013C4.58301 3.57457 5.73961 2.41797 7.16634 2.41797V0.917969C4.91118 0.917969 3.08301 2.74614 3.08301 5.0013H4.58301ZM7.16634 2.41797C8.59308 2.41797 9.74967 3.57457 9.74967 5.0013H11.2497C11.2497 2.74614 9.4215 0.917969 7.16634 0.917969V2.41797ZM4.66634 11.5846H9.66634V10.0846H4.66634V11.5846ZM9.66634 16.7513H4.66634V18.2513H9.66634V16.7513ZM4.66634 16.7513C3.23961 16.7513 2.08301 15.5947 2.08301 14.168H0.583008C0.583008 16.4231 2.41118 18.2513 4.66634 18.2513V16.7513ZM4.66634 10.0846C2.41118 10.0846 0.583008 11.9128 0.583008 14.168H2.08301C2.08301 12.7412 3.23961 11.5846 4.66634 11.5846V10.0846ZM10.4997 14.918H15.4997V13.418H10.4997V14.918ZM13.7497 16.668V11.668H12.2497V16.668H13.7497Z" fill="#8E94AB"/>
</svg>
