<svg width="14" height="19" viewBox="0 0 14 19" fill="none" xmlns="http://www.w3.org/2000/svg">
<path d="M13.25 7.08594C13.25 10.5377 10.4518 13.3359 7 13.3359C3.54822 13.3359 0.75 10.5377 0.75 7.08594C0.75 3.63416 3.54822 0.835938 7 0.835938C10.4518 0.835938 13.25 3.63416 13.25 7.08594Z" fill="#2CC379"/>
<path d="M12 12.6762C10.6731 13.8638 8.92089 14.5859 7 14.5859C5.07911 14.5859 3.32689 13.8638 2 12.6762V16.5682C2 17.8717 2 18.5234 2.41582 18.7094C2.83163 18.8954 3.34051 18.4712 4.35827 17.6229L5.1406 16.9708C6.02789 16.2313 6.47154 15.8615 7 15.8615C7.52846 15.8615 7.97211 16.2313 8.8594 16.9708L9.64173 17.6229C10.6595 18.4712 11.1684 18.8954 11.5842 18.7094C12 18.5234 12 17.8717 12 16.5682V12.6762Z" fill="#2CC379"/>
</svg>
