<svg width="16" height="17" viewBox="0 0 16 17" fill="none" xmlns="http://www.w3.org/2000/svg">
<path fill-rule="evenodd" clip-rule="evenodd" d="M15.879 8.57263C15.879 12.8182 12.4367 16.2605 8.19112 16.2605C3.9455 16.2605 0.503262 12.8182 0.503262 8.57263C0.503262 4.32701 3.9455 0.884766 8.19112 0.884766C12.4367 0.884766 15.879 4.32701 15.879 8.57263ZM8.4666 6.56033C7.71896 6.87105 6.22431 7.51491 3.9833 8.49126C3.61941 8.63605 3.42849 8.77764 3.4112 8.91602C3.38173 9.1505 3.67514 9.24275 4.07363 9.36768C4.12809 9.38498 4.18447 9.40228 4.24212 9.42149C4.63485 9.54899 5.16275 9.69826 5.43695 9.70402C5.68616 9.70915 5.96421 9.60664 6.27108 9.39651C8.36474 7.98258 9.44553 7.26825 9.51344 7.25288C9.56148 7.24199 9.62811 7.22789 9.67296 7.26825C9.7178 7.30797 9.71332 7.38357 9.70883 7.40407C9.67937 7.52772 8.53003 8.59697 7.93422 9.1505C7.74843 9.32283 7.6171 9.4452 7.59019 9.47339C7.52997 9.53553 7.46846 9.59511 7.40952 9.65213C7.04435 10.0032 6.77143 10.2672 7.4249 10.6977C7.73882 10.9046 7.98996 11.0757 8.24045 11.2461C8.51401 11.4325 8.78693 11.6183 9.14057 11.8502C9.23027 11.9092 9.31611 11.97 9.40004 12.0296C9.71844 12.257 10.0048 12.4608 10.3585 12.4287C10.5635 12.4095 10.7762 12.2167 10.8838 11.6407C11.1381 10.2787 11.6391 7.32912 11.7551 6.11315C11.7621 6.01219 11.7578 5.91076 11.7423 5.81076C11.733 5.73 11.6936 5.65568 11.6321 5.60255C11.5405 5.52759 11.3982 5.51158 11.3342 5.51286C11.0452 5.51798 10.6019 5.67238 8.4666 6.56033Z" fill="#2D264B"/>
</svg>
