<svg width="16" height="16" viewBox="0 0 16 16" fill="none" xmlns="http://www.w3.org/2000/svg">
<path fill-rule="evenodd" clip-rule="evenodd" d="M12.8666 1.05758C14.1642 0.576605 15.428 1.84034 14.947 3.13799L10.9223 13.9964C10.3687 15.4877 8.22091 15.3699 7.83363 13.8273L6.7028 9.31129L2.17123 8.17289C0.629278 7.78539 0.512081 5.63879 2.00295 5.08536L12.8666 1.05758ZM9.75031 13.5616L13.7749 2.70357C13.8845 2.40798 13.5966 2.1201 13.301 2.22966L2.43796 6.25722C2.09782 6.38349 2.12532 6.87244 2.47578 6.96056L7.37042 8.19016C7.59395 8.24632 7.76844 8.42094 7.82443 8.64451L9.04601 13.5229C9.13431 13.8747 9.62408 13.9011 9.75031 13.5616Z" fill="#2CC379"/>
</svg>
