<svg width="16" height="16" viewBox="0 0 16 16" fill="none" xmlns="http://www.w3.org/2000/svg">
<path d="M0.479758 15.6691L1.47918 11.9967C0.820639 10.8678 0.474655 9.58387 0.476801 8.27694C0.476801 4.19424 3.78628 0.884766 7.86897 0.884766C11.9517 0.884766 15.2611 4.19424 15.2611 8.27694C15.2611 12.3596 11.9517 15.6691 7.86897 15.6691C6.56261 15.6712 5.27924 15.3255 4.15071 14.6675L0.479758 15.6691ZM5.20114 4.80853C5.10568 4.81446 5.0124 4.8396 4.92689 4.88245C4.8467 4.92786 4.7735 4.98463 4.70956 5.05099C4.62085 5.13452 4.57059 5.20697 4.51662 5.27719C4.24342 5.63275 4.09646 6.0692 4.09897 6.5176C4.10044 6.87982 4.19506 7.23242 4.34291 7.56211C4.64525 8.22889 5.14274 8.93484 5.7999 9.58905C5.9581 9.7465 6.11259 9.90469 6.27892 10.0518C7.09456 10.7699 8.06653 11.2878 9.11751 11.5642L9.53813 11.6285C9.67488 11.6359 9.81164 11.6256 9.94913 11.6189C10.1644 11.6078 10.3746 11.5495 10.5649 11.4482C10.6617 11.3983 10.7562 11.344 10.848 11.2856C10.848 11.2856 10.8798 11.2649 10.9404 11.219C11.0402 11.1451 11.1016 11.0926 11.1844 11.0061C11.2457 10.9426 11.2989 10.8679 11.3396 10.7829C11.3973 10.6624 11.4549 10.4325 11.4786 10.241C11.4963 10.0947 11.4911 10.0148 11.4889 9.96531C11.486 9.88621 11.4202 9.80416 11.3485 9.76942L10.9182 9.57648C10.9182 9.57648 10.2751 9.29632 9.8826 9.11743C9.84121 9.09939 9.79686 9.08911 9.75176 9.08712C9.70118 9.08192 9.65008 9.08762 9.60188 9.10381C9.55369 9.12 9.50951 9.14632 9.47233 9.181V9.17952C9.46864 9.17952 9.41911 9.22166 8.88466 9.86921C8.85398 9.91043 8.81173 9.94158 8.76328 9.9587C8.71483 9.97581 8.66238 9.97811 8.61262 9.96531C8.56446 9.95243 8.51728 9.93612 8.47143 9.91652C8.37977 9.87808 8.34798 9.8633 8.28515 9.83595L8.28146 9.83447C7.85856 9.64983 7.467 9.40043 7.12088 9.09525C7.02774 9.01394 6.94125 8.92523 6.85255 8.83948C6.56172 8.56097 6.30827 8.2459 6.09855 7.90215L6.05493 7.83193C6.02361 7.78474 5.99828 7.73384 5.97953 7.68039C5.95144 7.57172 6.02463 7.4845 6.02463 7.4845C6.02463 7.4845 6.20426 7.28786 6.28779 7.18142C6.35734 7.09295 6.42223 7.00091 6.4822 6.90569C6.56943 6.76524 6.59678 6.62109 6.55095 6.50947C6.34397 6.00384 6.12959 5.50044 5.90931 5.00073C5.86569 4.90167 5.73633 4.83071 5.6188 4.81666C5.57888 4.81223 5.53896 4.80779 5.49904 4.80483C5.39977 4.7999 5.30029 4.80089 5.20114 4.80779V4.80853Z" fill="#2D264B"/>
</svg>
