<svg width="252" height="43" viewBox="0 0 252 43" fill="none" xmlns="http://www.w3.org/2000/svg">
<path d="M1.35156 41.101L8.73509 23.5786H13.3633L20.7347 41.101H15.5865L14.3174 37.9948H7.635L6.40239 41.101H1.35156ZM9.04948 34.2449H12.9407L11.0069 29.294L9.04948 34.2449Z" fill="#262E39"/>
<path d="M27.3652 41.101V23.7001H35.5392C38.0545 23.7001 39.9307 24.3268 41.1695 25.5788C42.1897 26.6121 42.7002 27.9958 42.7002 29.7285C42.7002 31.0016 42.3878 32.0824 41.7644 32.9725C41.1411 33.8613 40.2729 34.5416 39.1619 35.0135L43.2946 41.101H37.7569L34.2646 35.8106H32.1618V41.101H27.3652ZM32.1625 32.0607H35.3289C36.1423 32.0607 36.7751 31.8754 37.2261 31.5047C37.6771 31.1346 37.903 30.622 37.903 29.9675C37.903 29.3063 37.6751 28.8018 37.2201 28.4549C36.7651 28.1093 36.1268 27.9348 35.3046 27.9348H32.1625V32.0608L32.1625 32.0607Z" fill="#262E39"/>
<path d="M49.1348 27.9354V23.7008H64.3359V27.9354H59.1275V41.1017H54.331V27.9354H49.1348Z" fill="#262E39"/>
<path d="M71.3789 41.101V23.7001H79.5522C82.0675 23.7001 83.9452 24.3268 85.1838 25.5788C86.2048 26.6121 86.7146 27.9958 86.7146 29.7285C86.7146 31.0016 86.4022 32.0824 85.7782 32.9725C85.1561 33.8613 84.288 34.5416 83.1757 35.0135L87.3083 41.101H81.7713L78.279 35.8106H76.1762V41.101H71.3789H71.3789ZM76.1762 32.0607H79.3426C80.156 32.0607 80.7889 31.8754 81.2399 31.5047C81.6908 31.1346 81.9167 30.622 81.9167 29.9675C81.9167 29.3063 81.6888 28.8018 81.2338 28.4549C80.7788 28.1093 80.1405 27.9348 79.3183 27.9348H76.1762V32.0608L76.1762 32.0607Z" fill="#262E39"/>
<path d="M93.5254 32.407C93.5254 31.1761 93.7648 30.0042 94.2442 28.8921C94.7235 27.7786 95.374 26.8172 96.1955 26.0079C97.0171 25.1979 98.0083 24.5549 99.1686 24.0777C100.329 23.5997 101.565 23.3607 102.879 23.3607C104.192 23.3607 105.424 23.5976 106.576 24.0715C107.729 24.5447 108.713 25.1837 109.527 25.9896C110.343 26.7948 110.986 27.7542 111.455 28.8676C111.924 29.9797 112.16 31.1598 112.16 32.407C112.16 33.6359 111.921 34.8078 111.443 35.924C110.966 37.0401 110.316 38.0008 109.496 38.8102C108.677 39.6188 107.689 40.2604 106.531 40.7377C105.375 41.215 104.14 41.4533 102.831 41.4533C101.083 41.4533 99.4958 41.0507 98.0698 40.2461C96.6438 39.4429 95.5302 38.3512 94.7283 36.9715C93.9263 35.5939 93.5254 34.0724 93.5254 32.4069L93.5254 32.407ZM98.4437 32.407C98.4437 33.695 98.8629 34.8003 99.7007 35.7237C100.538 36.6477 101.598 37.1088 102.879 37.1088C104.175 37.1088 105.235 36.6518 106.056 35.7414C106.878 34.8302 107.289 33.7188 107.289 32.4064C107.289 31.1184 106.87 30.013 106.032 29.0897C105.194 28.1663 104.127 27.7046 102.83 27.7046C101.549 27.7046 100.498 28.1609 99.6757 29.072C98.8548 29.9831 98.4437 31.0946 98.4437 32.407Z" fill="#262E39"/>
<path d="M119.031 32.407C119.031 31.1523 119.261 29.9682 119.722 28.8554C120.183 27.742 120.814 26.7826 121.611 25.9774C122.409 25.1715 123.373 24.5346 124.507 24.0654C125.641 23.5949 126.854 23.3607 128.143 23.3607C131.228 23.3607 133.654 24.5733 135.418 26.9972L131.901 29.7428C130.829 28.3849 129.557 27.7053 128.082 27.7053C126.882 27.7053 125.893 28.1575 125.115 29.0625C124.338 29.9662 123.949 31.0817 123.949 32.4077C123.949 33.7412 124.338 34.8587 125.115 35.759C125.893 36.6613 126.881 37.1101 128.082 37.1101C128.928 37.1101 129.647 36.9322 130.239 36.5765C130.831 36.2207 131.418 35.6864 131.997 34.9748L135.61 37.5779C135.022 38.375 134.4 39.0464 133.744 39.5883C133.087 40.1301 132.261 40.5775 131.266 40.9292C130.272 41.2789 129.161 41.4547 127.937 41.4547C126.301 41.4547 124.805 41.0684 123.447 40.2957C122.09 39.5251 121.014 38.4449 120.221 37.0578C119.428 35.6707 119.031 34.1206 119.031 32.407L119.031 32.407Z" fill="#262E39"/>
<path d="M142.637 41.101V23.7001H147.434V30.7626L153.404 23.7001H159.096L152.534 31.1869L159.313 41.101H153.548L149.198 34.6455L147.434 36.5989V41.101H142.637H142.637Z" fill="#262E39"/>
<path d="M165.654 41.101V23.7001H179.588V27.8017H170.404V30.4346H178.717V34.2449H170.404V36.9994H179.709V41.101H165.654H165.654Z" fill="#262E39"/>
<path d="M186.143 27.9354V23.7008H201.344V27.9354H196.136V41.1017H191.339V27.9354H186.143Z" fill="#262E39"/>
<path d="M207.08 38.5162L209.763 35.3129C211.497 36.7041 213.372 37.4 215.391 37.4C216.025 37.4 216.51 37.2927 216.849 37.0782C217.185 36.8636 217.355 36.5547 217.355 36.1501C217.355 35.778 217.155 35.4745 216.758 35.2403C216.36 35.0054 215.59 34.7548 214.45 34.488C213.864 34.3502 213.355 34.2232 212.921 34.1057C212.489 33.9883 212.029 33.8409 211.544 33.663C211.059 33.4852 210.645 33.2991 210.307 33.1049C209.967 32.9107 209.635 32.6765 209.313 32.4008C208.988 32.1259 208.731 31.8285 208.535 31.5087C208.342 31.1889 208.187 30.8148 208.068 30.3864C207.951 29.958 207.893 29.4881 207.893 28.9789C207.893 27.3365 208.501 25.9977 209.718 24.9623C210.932 23.9269 212.568 23.4088 214.62 23.4088C217.464 23.4088 219.842 24.1774 221.752 25.7145L219.341 29.1242C217.723 27.9836 216.108 27.4132 214.499 27.4132C213.935 27.4132 213.505 27.5205 213.208 27.735C212.912 27.9496 212.763 28.2307 212.763 28.5783C212.763 28.9829 212.963 29.2959 213.359 29.5186C213.758 29.7413 214.556 29.9898 215.752 30.2648C216.814 30.4997 217.714 30.7563 218.457 31.0354C219.2 31.3144 219.869 31.6641 220.463 32.0851C221.057 32.506 221.498 33.0172 221.788 33.6202C222.08 34.2231 222.225 34.9285 222.225 35.7378C222.225 37.4936 221.589 38.8766 220.314 39.8876C219.038 40.8985 217.339 41.4043 215.21 41.4043C213.645 41.4043 212.161 41.1599 210.757 40.6704C209.352 40.1809 208.127 39.4632 207.08 38.5161L207.08 38.5162Z" fill="#262E39"/>
<path d="M246.34 6.77936C246.495 6.067 245.86 5.43335 245.148 5.58977L227.848 9.38992C227.078 9.55926 226.797 10.5131 227.354 11.0723L240.87 24.6431C241.428 25.2042 242.387 24.924 242.555 24.1503L246.34 6.77936Z" fill="#ED4A4A"/>
<path d="M250.311 2.78981C250.466 2.07746 249.831 1.44384 249.119 1.60026L228.973 6.02572C228.203 6.19506 227.922 7.14883 228.479 7.70807L244.219 23.5125C244.777 24.0736 245.736 23.7935 245.904 23.0197L250.311 2.78981Z" fill="#262E39"/>
</svg>
